<svg version="1.1" id="Layer_1" xmlns="http://www.w3.org/2000/svg" xmlns:xlink="http://www.w3.org/1999/xlink" x="0px" y="0px"
	 width="100%" viewBox="0 0 736 736" enable-background="new 0 0 736 736" xml:space="preserve">
<path fill="#000000" opacity="1.000000" stroke="none" 
	d="
M122.046188,428.928894 
	C130.378677,423.704498 139.219223,421.947113 148.094330,422.652130 
	C149.601242,421.159454 148.973175,419.979675 148.834061,418.881805 
	C147.491714,408.288513 150.984055,399.563416 158.899841,392.498810 
	C160.204788,391.334167 162.279099,390.438171 161.499832,388.139587 
	C160.635162,385.589111 158.299927,386.145752 156.385803,386.196869 
	C146.204269,386.468903 136.200378,388.256592 126.166214,389.806366 
	C122.103661,390.433807 117.558517,391.749481 115.316116,386.642426 
	C113.915466,383.452484 117.001953,379.687134 122.779320,377.533386 
	C131.892059,374.136230 141.532791,373.137115 151.070694,371.676300 
	C159.516678,370.382721 159.314484,370.305878 158.913345,361.742615 
	C157.747726,336.859650 162.228088,312.940186 172.664474,290.363342 
	C175.544479,284.133087 175.228485,279.007294 172.987076,272.876129 
	C162.022964,242.884842 162.326157,213.204575 176.821686,184.288879 
	C182.588135,172.786011 191.854309,166.894424 205.073761,167.678040 
	C224.353409,168.820877 243.228973,172.190125 260.903839,179.981110 
	C272.649506,185.158539 283.602051,186.757980 296.376892,183.035141 
	C315.878967,177.351822 336.256592,175.527252 356.509979,173.808228 
	C359.628418,173.543549 361.243195,172.205368 362.637756,169.638977 
	C367.108398,161.411606 372.340546,153.784973 379.377991,147.405334 
	C397.093903,131.345306 418.759430,133.144424 436.764374,147.029266 
	C439.394318,149.057373 442.203613,151.130676 444.092651,153.780060 
	C447.353668,158.353683 450.470490,157.653290 454.972382,155.565796 
	C473.202637,147.112549 492.230194,141.260345 512.365479,139.383652 
	C522.324097,138.455460 530.219299,141.467850 536.064209,149.954681 
	C544.026123,161.515442 547.517700,174.682571 550.078613,188.109329 
	C551.787903,197.070938 554.001892,204.273605 562.003601,210.959229 
	C577.034912,223.518204 577.574951,241.296951 572.492188,259.234436 
	C570.907349,264.827484 568.877869,270.337891 565.575378,275.229034 
	C564.128540,277.371857 564.111877,279.417969 565.068787,281.818542 
	C570.815186,296.234283 575.978455,310.825623 577.212219,326.471039 
	C577.512146,330.274353 579.942261,330.886108 583.142273,330.857361 
	C593.140320,330.767426 603.139465,330.805206 613.138184,330.791656 
	C616.001709,330.787750 618.768250,331.154022 621.366455,332.511078 
	C623.919250,333.844452 625.633057,335.519592 625.331665,338.741974 
	C625.018311,342.092560 622.438477,342.579926 620.059082,343.097931 
	C616.152283,343.948486 612.168518,344.231476 608.147705,344.240967 
	C600.491882,344.259033 592.836304,344.096588 585.202698,345.213928 
	C580.939331,345.838013 579.080322,347.723846 579.259521,352.113281 
	C579.497131,357.934814 579.206848,363.749512 578.503418,369.566864 
	C577.759399,375.720978 579.829773,378.148834 586.158264,378.598236 
	C592.678711,379.061279 598.968567,380.713348 605.370728,381.766205 
	C607.642944,382.139923 609.888489,382.950073 612.014221,383.866943 
	C614.323608,384.863007 615.787659,386.762543 615.484619,389.395233 
	C615.180420,392.038971 612.955078,392.704559 610.775879,393.136566 
	C602.117493,394.852905 593.488647,393.321838 584.890747,392.605194 
	C576.815063,391.932068 575.544739,392.633148 573.231506,400.517487 
	C571.781616,405.459198 570.039246,410.330780 568.148743,415.123627 
	C565.735352,421.242340 565.705750,421.657379 571.859802,424.517609 
	C580.165222,428.377777 588.559631,432.046143 596.902100,435.827332 
	C598.882080,436.724731 600.719788,437.794739 601.944397,439.752350 
	C604.750122,444.237457 602.767029,448.587555 597.525208,449.231903 
	C592.846680,449.807037 588.676086,447.887543 584.478699,446.352264 
	C577.911804,443.950256 571.388184,441.416382 564.926880,438.743469 
	C560.124817,436.756927 556.765564,437.487366 553.333862,441.914734 
	C541.006104,457.819092 525.322937,469.802246 507.705841,479.365234 
	C505.730408,480.437531 503.281189,480.839233 501.730286,483.198944 
	C504.504913,485.131287 507.238312,486.960083 509.892822,488.896942 
	C520.001404,496.272522 523.633423,508.446686 519.141968,519.972168 
	C516.455200,526.866699 510.943298,530.305908 504.020264,531.617676 
	C500.818146,532.224426 498.901062,533.683228 497.146118,536.514587 
	C491.977966,544.852905 483.761627,545.442017 475.104584,544.123596 
	C467.455872,542.958923 467.827362,543.060913 464.540131,550.234741 
	C454.182190,572.838989 441.972351,594.245056 420.806946,608.681580 
	C405.711487,618.977905 389.557190,621.505310 372.679291,612.780151 
	C370.857727,611.838501 369.486664,611.834778 367.611694,612.795898 
	C350.334076,621.652100 334.071899,618.693665 318.678864,608.091492 
	C303.745636,597.806091 293.838562,583.203979 284.840149,567.893433 
	C282.420624,563.776672 280.268890,559.502441 278.143127,555.575562 
	C276.026215,555.465576 275.140198,556.554260 274.172394,557.427429 
	C249.082794,580.063049 204.697952,578.486816 179.786560,561.147339 
	C164.245438,550.329956 156.856125,534.676575 154.800018,516.350769 
	C154.194626,510.954956 152.297974,507.210785 147.823257,504.048279 
	C139.393723,498.090698 131.114120,491.866516 123.216705,485.224670 
	C114.003342,477.476044 107.301811,468.022095 107.757248,455.243835 
	C108.145210,444.358826 112.137619,435.183502 122.046188,428.928894 
M404.586945,268.379395 
	C401.300568,268.881378 398.029633,269.547729 394.725250,269.858551 
	C374.145477,271.794098 357.253723,260.646301 350.988129,240.988647 
	C346.928680,228.252579 347.197052,215.433807 350.404755,202.555847 
	C351.186584,199.417053 352.627594,196.355011 352.290771,192.941467 
	C351.614075,192.736832 351.132782,192.430801 350.692169,192.481094 
	C328.535797,195.010406 306.323639,197.284164 284.949921,204.155792 
	C279.734406,205.832565 274.839386,205.778137 269.981384,203.196136 
	C267.480774,201.867050 264.963074,200.558990 262.389771,199.379578 
	C245.949310,191.844452 229.073425,186.091171 210.769852,184.930786 
	C199.954880,184.245163 193.629608,189.078781 189.405807,198.489914 
	C182.759109,213.299591 181.827423,228.695633 183.851807,244.470215 
	C184.586288,250.193390 185.646835,255.890594 189.533691,260.752136 
	C190.618546,260.227386 191.387283,259.937317 192.070862,259.510742 
	C195.019669,257.670502 198.058060,257.103210 200.837509,259.568481 
	C203.721268,262.126251 203.801620,265.406372 202.245377,268.719818 
	C201.186798,270.973694 199.949921,273.151062 198.687485,275.300873 
	C182.795975,302.362610 174.697662,331.394470 175.991470,362.948120 
	C176.204193,368.135986 178.487503,369.575867 183.038773,369.637482 
	C188.853210,369.716217 194.722473,369.238434 200.432388,370.886078 
	C203.375259,371.735260 205.839355,373.242401 205.709351,376.629395 
	C205.575150,380.125854 203.265778,381.649628 199.875107,382.352295 
	C194.075668,383.554138 188.162567,382.419922 180.969345,383.560059 
	C192.698837,384.322998 199.992661,389.983856 205.722122,398.050964 
	C211.185623,405.743591 214.665222,414.333923 217.214050,423.398468 
	C220.180130,433.946899 220.900482,434.342377 231.555832,434.686737 
	C261.221802,435.645477 283.477112,452.013336 293.186676,480.184692 
	C294.168793,483.034149 295.569824,484.464722 298.628265,485.076874 
	C318.970428,489.148315 339.614319,490.176270 360.229553,490.565979 
	C392.105621,491.168549 423.726257,488.376007 454.825317,480.830566 
	C479.751038,474.782959 502.970245,465.164276 522.717834,448.412781 
	C528.459839,443.541931 534.351685,438.585388 537.954895,431.202545 
	C535.472412,429.831482 533.377197,428.854126 531.480591,427.580902 
	C529.162415,426.024719 527.379395,423.976440 528.373413,420.887695 
	C529.304321,417.995209 531.504089,416.684204 534.494995,416.704346 
	C537.660461,416.725677 540.829407,416.717102 543.989746,416.868988 
	C546.815918,417.004791 548.799316,416.027771 549.909546,413.319214 
	C551.930481,408.388702 554.255798,403.571533 556.050964,398.562561 
	C558.676819,391.235413 558.520996,391.196136 551.145569,389.087769 
	C549.871094,388.723419 548.537598,388.352783 547.429443,387.665649 
	C545.390747,386.401642 543.627808,384.723755 544.024475,382.033691 
	C544.432678,379.265686 546.670349,378.331055 549.057556,377.915771 
	C551.509399,377.489227 554.005981,377.323395 556.479675,377.017212 
	C559.988159,376.582947 561.457581,374.589600 561.975220,371.061432 
	C562.755432,365.744141 562.821777,360.439178 562.769592,355.112152 
	C562.713440,349.374237 561.621033,348.460602 555.856384,349.346191 
	C551.254456,350.053192 546.870239,351.928802 542.153381,352.028351 
	C538.439453,352.106781 534.700439,351.479370 533.995178,347.174316 
	C533.333313,343.134064 536.050720,340.653076 539.741760,339.523590 
	C545.150635,337.868347 550.579773,336.245789 556.074402,334.915558 
	C559.894043,333.990814 561.300781,331.734619 561.006592,328.056122 
	C560.540833,322.233521 559.673035,316.453827 558.139526,310.833832 
	C556.552124,305.016754 555.150452,299.071075 551.753906,293.391174 
	C546.909851,298.037628 542.258362,302.045135 537.184509,305.545929 
	C521.182373,316.586823 503.215240,316.941620 488.137512,306.409149 
	C481.477997,301.757233 476.124420,295.771027 471.919159,288.935577 
	C469.277557,284.641754 465.976257,282.976257 461.096832,282.371429 
	C448.225372,280.776001 437.175079,275.382751 429.364563,264.639160 
	C426.940704,261.305115 424.367676,260.649597 420.820740,262.426453 
	C415.889282,264.896881 410.659271,266.602234 404.586945,268.379395 
M163.425705,420.876282 
	C165.676102,431.829865 171.980438,441.651520 172.981995,453.124756 
	C170.441544,453.652344 168.934891,452.441711 167.346054,451.657745 
	C160.626114,448.342102 154.026306,444.766083 147.205276,441.676788 
	C139.387695,438.136139 131.873398,439.538940 127.579300,444.855255 
	C119.145248,455.297211 120.465988,465.235779 131.373642,473.109924 
	C133.126999,474.375671 134.960632,475.540680 136.818741,476.649048 
	C145.684082,481.937439 154.474396,487.363373 163.492722,492.378296 
	C167.639908,494.684479 169.121445,497.505676 169.111176,502.314606 
	C169.073944,519.740356 174.118607,535.293152 188.450409,546.369385 
	C199.838821,555.170898 213.370270,556.990479 227.286667,556.580688 
	C254.709564,555.773254 278.633423,532.503540 280.047516,505.416168 
	C281.251984,482.344025 269.399445,462.762329 249.180862,454.872681 
	C238.938629,450.875977 228.144287,449.738312 217.264954,450.528259 
	C212.909805,450.844421 210.626984,449.265564 209.265045,445.569672 
	C207.366257,440.416962 205.657913,435.191895 203.670990,430.074310 
	C200.551926,422.040771 199.066833,413.306549 193.666321,406.239960 
	C188.594833,399.603882 180.718826,397.365631 172.648453,400.189484 
	C165.912369,402.546478 163.040115,407.481567 163.171600,416.509460 
	C163.188568,417.674744 163.285461,418.838837 163.425705,420.876282 
M394.562561,531.188660 
	C383.848083,537.206116 372.591736,540.503174 360.157928,538.288269 
	C347.192749,535.978638 334.849854,531.224243 329.181854,518.953125 
	C324.151001,508.061401 317.340729,503.208679 305.879761,503.801392 
	C305.398987,503.826233 304.907410,503.591980 304.417389,503.496338 
	C301.240479,502.876190 299.905975,503.851624 299.064545,507.370178 
	C296.165161,519.494141 292.995392,531.627014 286.432800,542.419373 
	C284.147308,546.177917 284.338104,548.664734 287.510834,551.916199 
	C316.805328,581.937439 353.034668,587.847473 392.448975,582.009827 
	C410.149139,579.388184 425.584991,571.176758 439.184601,559.700562 
	C446.121613,553.846680 452.752075,547.580688 457.615326,539.124573 
	C450.939453,535.599792 445.621704,531.229309 442.138489,524.904846 
	C438.970886,519.153564 436.788391,513.078796 435.853210,506.591705 
	C435.324677,502.925537 433.418060,501.936005 429.929047,502.652405 
	C425.862915,503.487305 421.737854,504.076324 417.614929,504.580353 
	C414.324982,504.982574 412.381744,506.360382 411.193054,509.728821 
	C408.135590,518.392700 402.987732,525.655090 394.562561,531.188660 
M411.129211,153.056427 
	C400.237396,151.742752 392.105865,156.835236 385.438507,164.631958 
	C371.882660,180.484085 365.239227,199.241699 363.503418,219.783508 
	C362.715485,229.108292 364.362274,238.066010 370.695160,245.519516 
	C380.367767,256.903687 408.237061,257.952026 418.906708,247.379379 
	C421.872772,244.440216 421.553070,240.968353 418.034363,238.603455 
	C416.935303,237.864792 415.695465,237.339081 414.545746,236.671707 
	C400.677948,228.621979 398.410797,209.319061 410.019104,198.180374 
	C418.242035,190.290115 428.553375,189.479218 440.419586,195.787415 
	C442.573578,196.932495 444.761719,198.987549 447.219177,196.835449 
	C449.822632,194.555496 448.871002,191.679016 447.722046,189.014725 
	C443.236420,178.612808 436.288910,169.944458 428.484406,161.891418 
	C423.937347,157.199524 418.394562,154.371918 411.129211,153.056427 
M499.390900,296.239807 
	C506.252930,299.117798 513.500732,300.238373 520.241760,296.984314 
	C541.972595,286.494232 556.136353,269.559753 559.732544,245.419678 
	C562.544739,226.542435 551.060852,218.017532 537.442871,215.678238 
	C528.795654,214.192856 520.180969,215.428848 511.897522,218.355957 
	C505.455780,220.632263 504.692352,222.345230 506.415314,228.812241 
	C507.025024,231.100952 508.312073,232.626297 510.427551,233.558334 
	C513.523438,234.922318 516.159912,236.971359 518.451111,239.398041 
	C523.791443,245.054153 526.528564,251.466629 524.177429,259.412994 
	C521.689636,267.821136 516.769653,273.218445 507.666779,274.561859 
	C503.245789,275.214355 499.009949,274.911255 494.831085,273.861694 
	C489.763123,272.588776 486.857300,276.013977 484.245361,278.915588 
	C481.943146,281.473175 485.294067,283.719727 486.645111,285.750458 
	C489.644623,290.258942 493.742523,293.641449 499.390900,296.239807 
M436.067322,235.772934 
	C436.054443,236.603867 436.098969,237.440262 436.020172,238.264908 
	C434.484528,254.338654 448.491425,269.304138 465.862488,268.451355 
	C486.284454,267.448853 494.990051,247.230728 493.406921,233.848831 
	C491.801544,220.279083 478.988678,209.363541 465.455658,209.352753 
	C449.566467,209.340057 438.357208,219.095123 436.067322,235.772934 
M476.712006,165.276962 
	C471.840363,167.407440 467.015869,169.655945 462.081055,171.628357 
	C458.585663,173.025436 458.170746,174.955963 459.807587,178.190384 
	C461.753540,182.035629 463.455902,186.039902 464.849365,190.116928 
	C465.844147,193.027603 467.589203,194.292084 470.481415,194.947708 
	C478.460907,196.756531 486.203979,199.228516 492.811310,204.367004 
	C495.461334,206.427917 498.360504,206.115829 501.342102,205.089142 
	C507.638031,202.921204 514.059326,201.265472 520.683716,200.416489 
	C525.525269,199.796005 530.347656,199.026077 535.458923,198.281952 
	C533.316040,185.883728 531.011047,174.208130 524.791931,163.680954 
	C521.557495,158.205963 517.117615,156.112366 510.655182,156.697327 
	C499.100922,157.743149 488.120972,160.694534 476.712006,165.276962 
M353.567596,523.088684 
	C366.590942,527.085266 379.477509,527.309814 392.009674,521.338196 
	C397.475891,518.733582 401.352692,514.708557 402.300354,507.985413 
	C380.870117,507.985413 359.950989,507.985413 338.490448,507.985413 
	C340.433380,516.435608 346.445129,519.805786 353.567596,523.088684 
M337.013489,589.655640 
	C325.295074,585.324036 314.596313,579.069397 303.367432,571.119080 
	C308.241333,584.117737 314.495972,594.451721 324.830048,601.938660 
	C332.568878,607.545410 341.172760,609.936218 350.712769,608.850281 
	C357.299072,608.100708 363.700562,602.377625 364.871002,595.753296 
	C355.614929,594.812805 346.523193,593.056702 337.013489,589.655640 
M379.406616,602.115601 
	C386.298401,610.499817 395.362396,610.237244 404.510773,607.799316 
	C417.182312,604.422546 425.573578,595.534851 431.926300,584.545959 
	C434.032166,580.903198 436.485260,577.313232 437.203705,571.734924 
	C418.475739,585.229309 398.773499,593.781433 376.913391,595.887878 
	C376.521606,598.797180 377.824829,600.146484 379.406616,602.115601 
M506.265839,501.378845 
	C504.119843,498.703705 501.455933,496.926575 498.082123,496.019501 
	C495.410583,495.301270 493.665222,495.824402 492.340271,498.345825 
	C487.699036,507.178284 482.867767,515.911682 478.288055,524.775330 
	C476.366760,528.493896 477.470764,530.314697 481.638428,530.879089 
	C485.153900,531.355286 488.587891,530.794495 490.234467,527.320312 
	C491.862762,523.884827 494.604431,522.841980 497.891418,521.797852 
	C507.792267,518.653076 510.832733,511.539703 506.265839,501.378845 
M450.930542,513.493896 
	C451.771667,518.948975 454.006042,523.495117 459.525940,526.650146 
	C465.973755,515.308044 473.080292,504.660126 478.796631,492.957794 
	C471.718445,489.285339 465.380188,489.631256 459.650299,493.464844 
	C452.977173,497.929504 449.632751,504.371674 450.930542,513.493896 
M429.408112,205.639175 
	C427.929016,205.494888 426.415131,205.076660 424.977539,205.259247 
	C421.120819,205.749023 418.107910,207.612549 416.530151,211.355331 
	C414.841461,215.361206 415.121918,219.195679 417.851135,222.628357 
	C420.554993,226.029083 422.940155,225.760284 424.781036,221.895844 
	C426.640747,217.992004 428.440186,214.054398 431.068634,210.596863 
	C432.631226,208.541443 432.609436,207.025589 429.408112,205.639175 
M501.560577,261.456726 
	C501.631500,262.873993 502.493469,263.623871 503.794006,263.556580 
	C507.336639,263.373291 510.150482,261.737488 511.821442,258.608185 
	C513.351196,255.743286 512.984253,252.872665 510.980133,250.275909 
	C509.054871,247.781326 507.366150,247.514099 505.995544,250.792358 
	C504.598480,254.133850 503.134674,257.447418 501.560577,261.456726 
z"/>
<path fill="#000000" opacity="1.000000" stroke="none" 
	d="
M400.438507,419.293274 
	C396.697693,430.692230 386.338531,436.462952 372.841217,434.885620 
	C368.028351,434.323151 363.364624,433.219208 359.346283,430.216766 
	C351.294800,424.200775 350.363220,412.898010 357.383881,405.765808 
	C366.007690,397.004974 384.858521,396.027069 394.252533,403.993439 
	C398.795868,407.846191 401.386353,412.695068 400.438507,419.293274 
M369.120850,423.634277 
	C374.348694,425.590668 379.524597,425.599365 384.582336,423.099457 
	C386.993530,421.907654 388.542114,419.916534 388.559509,417.200470 
	C388.578247,414.280823 386.940979,412.231628 384.353607,410.919647 
	C379.722778,408.571533 374.981049,409.048706 370.237091,410.412903 
	C367.368500,411.237793 365.018463,412.798340 364.464081,415.984924 
	C363.872925,419.383179 365.377472,421.777100 369.120850,423.634277 
z"/>
<path fill="#000000" opacity="1.000000" stroke="none" 
	d="
M253.852615,393.561066 
	C253.486191,387.581482 253.926987,382.220093 256.393707,377.079742 
	C259.091614,371.457611 263.687927,368.974030 269.561157,368.862183 
	C275.516388,368.748749 279.580872,371.984741 281.925598,377.330261 
	C285.343689,385.122864 286.174316,392.930328 282.065796,400.838654 
	C279.056915,406.630371 274.382385,409.445374 267.954102,409.141571 
	C261.978333,408.859131 256.991547,404.602142 254.974030,398.360382 
	C254.515442,396.941589 254.254761,395.458771 253.852615,393.561066 
z"/>
<path fill="#000000" opacity="1.000000" stroke="none" 
	d="
M487.283142,390.011719 
	C482.446259,400.450745 466.768555,399.442596 462.044617,388.489166 
	C458.874207,381.137878 458.351624,373.709686 461.711456,366.328644 
	C464.752838,359.647125 469.664978,357.012848 476.916443,357.751801 
	C482.851318,358.356567 486.992493,362.205414 488.784973,368.867035 
	C490.689178,375.943726 491.016235,382.933960 487.283142,390.011719 
z"/>
<path fill="#000000" opacity="1.000000" stroke="none" 
	d="
M249.788055,524.827820 
	C243.748352,529.653259 237.641830,533.594849 230.381775,535.478088 
	C217.051468,538.935974 205.333755,534.077209 198.475952,522.168152 
	C188.455688,504.767273 195.125610,486.551605 214.044174,479.867554 
	C220.373810,477.631195 226.942383,476.621246 233.673645,476.836487 
	C234.503876,476.863007 235.339417,476.914703 236.159302,477.040710 
	C241.321899,477.834106 244.072662,480.382996 243.889923,484.585510 
	C243.700089,488.951355 240.321075,490.317474 236.804779,491.092499 
	C232.591461,492.021179 228.286438,492.526978 224.056198,493.388184 
	C220.947891,494.020935 217.997299,495.178497 215.298584,496.901642 
	C208.051697,501.528809 207.272766,510.093903 213.566940,515.975403 
	C220.175873,522.151001 228.946884,522.447449 236.311035,516.789734 
	C239.660141,514.216797 242.102829,510.847961 244.653763,507.563232 
	C247.470139,503.936737 250.992035,503.392059 254.798737,505.686523 
	C258.586151,507.969391 258.864990,511.487305 257.414795,515.288330 
	C255.943726,519.143982 253.068451,521.933716 249.788055,524.827820 
z"/>
</svg>